<?xml version="1.0" encoding="utf-8"?>
<!-- Generator: Adobe Illustrator 23.0.5, SVG Export Plug-In . SVG Version: 6.00 Build 0)  -->
<svg version="1.1" id="Logo" xmlns="http://www.w3.org/2000/svg" xmlns:xlink="http://www.w3.org/1999/xlink" x="0px" y="0px"
	 viewBox="0 0 200.9 49" style="enable-background:new 0 0 200.9 49;" xml:space="preserve">
<style type="text/css">
	.st0{fill-rule:evenodd;clip-rule:evenodd;fill:#FFFFFF;}
	.st1{fill:url(#SVGID_1_);}
	.st2{fill-rule:evenodd;clip-rule:evenodd;fill:#251501;}
</style>
<path id="Savohin" class="st0" d="M81.3,35.5c1-0.3,2-0.7,3-1.2c0.8-0.5,1.5-1.2,2-1.9c0.5-0.8,0.8-1.7,0.7-2.6
	c0-0.8-0.2-1.6-0.6-2.4c-0.4-0.7-0.9-1.2-1.5-1.7c-0.6-0.5-1.3-0.8-2.1-1.1c-0.8-0.3-1.5-0.6-2.3-0.8c-0.7-0.3-1.4-0.5-2.1-0.7
	c-0.6-0.2-1.1-0.5-1.5-0.9c-0.4-0.3-0.6-0.7-0.6-1.2c0-0.8,0.6-1.6,1.3-1.9c1.1-0.6,2.2-0.9,3.4-1c0.3,0.9,0.9,1.7,1.6,2.3
	c0.7,0.5,1.5,0.8,2.4,0.8c0.8,0,1.6-0.2,2.3-0.7c0.6-0.5,1-1.3,0.9-2.1c0-0.7-0.3-1.3-0.8-1.7c-0.7-0.6-1.5-1-2.3-1.2
	c-1.2-0.3-2.4-0.4-3.6-0.4c-1.4,0-2.7,0.1-4,0.4c-1.2,0.3-2.3,0.7-3.3,1.3c-0.9,0.5-1.6,1.2-2.2,2.1c-0.5,0.9-0.8,1.8-0.8,2.9
	c0,0.8,0.2,1.7,0.6,2.4c0.4,0.7,0.9,1.2,1.5,1.7c0.6,0.5,1.3,0.9,2.1,1.2c0.8,0.3,1.5,0.6,2.3,0.9c0.8,0.3,1.4,0.5,2.1,0.8
	c0.5,0.2,1.1,0.5,1.5,0.9c0.4,0.3,0.6,0.7,0.6,1.2c0,0.8-0.5,1.6-1.3,1.9c-1,0.4-2,0.6-3.1,0.6c-1.2,0-2.5-0.3-3.5-1
	c-1-0.6-1.9-1.5-2.5-2.5c-0.4,0.3-0.7,0.7-1,1.2c-0.2,0.4-0.3,0.9-0.4,1.4c0,0.7,0.3,1.5,0.8,2c0.7,0.6,1.6,1.1,2.5,1.3
	c1.4,0.3,2.8,0.5,4.2,0.5C79,35.9,80.2,35.8,81.3,35.5z M99.1,34.8c1.1-0.8,1.9-1.9,2.4-3.1l0.3,0.1c0,0.2-0.1,0.5-0.1,0.7
	c0,0.2,0,0.4,0,0.6c0,0.8,0.2,1.5,0.7,2.1c0.5,0.5,1.2,0.8,1.9,0.7c0.5,0,1-0.1,1.5-0.3c0.5-0.2,1-0.5,1.4-0.9
	c-0.5-0.6-0.8-1.3-0.7-2.1c0-1.1,0.1-2.2,0.3-3.3c0.2-1.1,0.4-2.3,0.7-3.3s0.5-2,0.7-2.9c0.2-0.7,0.3-1.4,0.3-2.1
	c0-0.5-0.1-1-0.5-1.4c-0.4-0.3-0.9-0.5-1.4-0.5c-0.6,0-1.1,0.1-1.6,0.4c-0.5,0.3-1,0.6-1.3,1.1c-0.2,2.9-0.9,5.8-2,8.6
	c-0.9,1.9-2.2,2.8-3.7,2.8c-0.7,0-1.4-0.3-1.8-0.9c-0.5-0.7-0.7-1.6-0.7-2.4c0-1.1,0.2-2.2,0.7-3.1c0.4-1,1.1-1.9,1.9-2.6
	c0.8-0.8,1.8-1.4,2.9-1.7c1.2-0.4,2.4-0.6,3.6-0.6c0-0.4,0-0.7-0.1-1.1c0-0.3-0.1-0.6-0.3-0.8c-0.8-0.2-1.6-0.2-2.4-0.2
	c-1.5,0-3,0.3-4.4,0.8c-2.6,1-4.7,3.1-5.8,5.7c-0.6,1.4-0.8,2.9-0.8,4.4c0,1.2,0.2,2.4,0.6,3.5c0.4,0.9,1,1.7,1.8,2.3
	c0.8,0.5,1.7,0.8,2.7,0.8C96.9,35.9,98.1,35.6,99.1,34.8z M119.6,35.7c0.7-0.2,1.4-0.4,2-0.7c0.6-0.3,1.1-0.6,1.6-1.1l-0.6-1.2
	c1-1.8,1.9-3.3,2.6-4.6c0.7-1.3,1.3-2.4,1.7-3.3c0.4-0.8,0.7-1.5,0.9-2.3c0.2-0.5,0.3-1.1,0.3-1.7c0-0.6-0.1-1.2-0.5-1.7
	c-0.4-0.4-1-0.6-1.6-0.6c-0.6,0-1.1,0.1-1.6,0.3c-0.5,0.2-1.1,0.4-1.5,0.7c0.4,0.7,0.5,1.4,0.5,2.2c-0.1,0.9-0.2,1.7-0.6,2.5
	c-0.5,1.3-1.1,2.6-1.8,3.8c-0.8,1.5-1.8,3.1-3.1,5h-0.3c0-0.3,0-0.7,0-1.2c0-0.5,0-1,0-1.5c0-0.6,0-1.2,0-1.9s0-1.5,0-2.3
	c0-1.5-0.1-3.1-0.4-4.6c-0.1-0.9-0.5-1.7-1.1-2.3c-0.5-0.5-1.2-0.7-1.9-0.7c-1,0-2,0.4-2.8,1c0.5,0.5,0.9,1.2,1.1,1.9
	c0.2,0.8,0.4,1.6,0.4,2.5c0.1,0.9,0.1,1.9,0.1,3c0,1.1,0,2.2,0,3.3c0,1.2,0.1,2.3,0.4,3.5c0.2,0.8,0.7,1.5,1.4,1.9
	c0.8,0.4,1.7,0.6,2.6,0.6C118.3,35.9,119,35.8,119.6,35.7L119.6,35.7z M141.9,35.1c1.2-0.6,2.2-1.3,3.1-2.3c0.9-1,1.6-2.2,2.1-3.5
	c0.5-1.4,0.8-2.8,0.8-4.3c0.1-1.2-0.3-2.3-0.9-3.3c-0.9-1.3-2.6-1.6-4-0.8c-0.5,0.3-0.9,0.7-1.1,1.2c-0.3,0.5-0.4,1.2-0.4,1.8
	c0,0.7,0.2,1.4,0.5,2.1c0.4,0.6,1,1.2,1.6,1.5c-0.1,1.1-0.4,2.1-0.9,3.1c-0.4,0.8-1,1.5-1.7,2c-0.7,0.5-1.5,0.7-2.3,0.7
	c-0.9,0-1.8-0.4-2.4-1.2c-0.7-1.1-1-2.3-0.9-3.6c0-1.4,0.3-2.8,1-4.1c0.6-1.2,1.6-2.2,2.7-2.9c1.3-0.7,2.8-1.1,4.2-1.1
	c0-0.4,0-0.7-0.1-1.1c0-0.3-0.1-0.6-0.2-0.9c-0.3-0.1-0.7-0.1-1.1-0.2c-0.3,0-0.7,0-1,0c-1.4,0-2.8,0.2-4.1,0.7
	c-1.2,0.5-2.3,1.2-3.3,2.1c-0.9,0.9-1.7,2-2.1,3.2c-0.5,1.3-0.8,2.7-0.8,4.1c0,1.4,0.3,2.7,0.9,3.9c0.6,1.1,1.5,2,2.5,2.6
	c1.2,0.6,2.5,0.9,3.9,0.9C139.4,35.9,140.7,35.7,141.9,35.1z M156.6,34.8c-0.2-0.3-0.3-0.6-0.3-0.9c-0.1-0.4-0.1-0.8-0.1-1.3
	c0-1.5,0.2-2.9,0.7-4.3c0.4-1.2,1-2.3,1.7-3.4c0.6-0.8,1.3-1.6,2.2-2.2c0.6-0.5,1.3-0.7,2.1-0.8c0.4,0,0.7,0.1,1,0.4
	c0.2,0.4,0.3,0.8,0.3,1.2c0,0.7-0.1,1.3-0.3,2c-0.2,0.8-0.4,1.6-0.6,2.4s-0.4,1.7-0.6,2.6c-0.2,0.8-0.2,1.6-0.3,2.5
	c-0.1,0.8,0.2,1.5,0.6,2.1c0.6,0.5,1.3,0.8,2.1,0.7c1,0,1.9-0.4,2.6-1.1c-0.2-0.3-0.3-0.6-0.4-0.9c-0.1-0.4-0.1-0.8-0.1-1.3
	c0-0.9,0.1-1.8,0.3-2.8c0.2-0.9,0.4-1.8,0.6-2.8c0.2-0.9,0.4-1.8,0.6-2.7c0.2-0.8,0.3-1.6,0.3-2.5c0.1-1-0.2-1.9-0.9-2.7
	c-0.7-0.6-1.7-0.9-2.6-0.9c-0.9,0-1.9,0.2-2.7,0.6c-1,0.4-1.9,1-2.7,1.8c-1,0.9-1.8,2-2.4,3.2l-0.3-0.1c0.3-1.4,0.5-2.6,0.8-3.7
	c0.3-1.1,0.5-2,0.7-2.9c0.2-0.6,0.3-1.3,0.3-2c0.1-0.5-0.1-1-0.5-1.4c-0.5-0.3-1-0.5-1.6-0.4c-0.8,0-1.6,0.2-2.3,0.5
	c-0.8,0.3-1.5,0.7-2.2,1.2l1.4,1.9c-0.2,1.1-0.4,2.3-0.7,3.5c-0.3,1.3-0.5,2.5-0.7,3.8c-0.2,1.3-0.5,2.5-0.7,3.6
	c-0.2,1.1-0.4,2.1-0.5,3c-0.1,0.6-0.2,1.3-0.2,1.9c-0.1,0.8,0.2,1.5,0.6,2.1c0.6,0.5,1.3,0.8,2.1,0.7
	C155,35.9,155.9,35.5,156.6,34.8L156.6,34.8L156.6,34.8z M178.2,34.8c-0.3-0.2-0.4-0.5-0.5-0.9c-0.1-0.4-0.2-0.8-0.2-1.3
	c0-0.7,0.1-1.4,0.2-2.2c0.1-0.8,0.3-1.6,0.4-2.5s0.3-1.7,0.5-2.5c0.2-0.8,0.4-1.6,0.5-2.3c0.2-0.7,0.3-1.3,0.4-1.8
	c0.1-0.3,0.1-0.7,0.2-1c0-0.5-0.1-1-0.4-1.4c-0.4-0.3-0.9-0.5-1.5-0.4c-0.8,0-1.6,0.2-2.3,0.5c-0.8,0.3-1.6,0.7-2.3,1.2l1.4,2
	c-0.3,1.3-0.5,2.5-0.8,3.6c-0.2,1.2-0.5,2.2-0.6,3.1c-0.2,0.9-0.3,1.8-0.4,2.5c-0.1,0.6-0.1,1.1-0.2,1.7c-0.1,0.8,0.2,1.5,0.6,2.2
	c0.6,0.5,1.3,0.8,2.1,0.7C176.4,35.9,177.4,35.5,178.2,34.8C178.2,34.8,178.2,34.8,178.2,34.8z M179.1,16.2c0.5-0.2,0.9-0.5,1.2-1
	c0.3-0.4,0.5-0.9,0.4-1.4c0-0.6-0.2-1.1-0.7-1.5c-0.5-0.4-1.2-0.6-1.9-0.5c-0.5,0-1.1,0.1-1.5,0.3c-0.5,0.2-0.9,0.5-1.2,0.9
	c-0.3,0.4-0.5,0.9-0.5,1.4c0,0.6,0.2,1.1,0.7,1.5c0.5,0.4,1.2,0.6,1.9,0.5C178,16.6,178.5,16.4,179.1,16.2z M188.7,34.8
	c-0.4-0.6-0.6-1.4-0.5-2.1c0-1.1,0.1-2.2,0.4-3.3c0.3-1,0.6-2,1.1-2.9c0.4-0.8,0.9-1.6,1.6-2.3c0.5-0.6,1.1-1.1,1.8-1.5
	c0.5-0.3,1.1-0.5,1.8-0.5c0.4,0,0.7,0.1,1,0.4c0.2,0.4,0.3,0.8,0.3,1.2c0,0.7-0.1,1.3-0.3,2c-0.2,0.8-0.4,1.6-0.6,2.4
	c-0.2,0.8-0.4,1.7-0.6,2.6c-0.2,0.8-0.2,1.6-0.3,2.5c-0.1,0.8,0.2,1.5,0.6,2.2c0.6,0.5,1.3,0.8,2.1,0.7c1,0,1.9-0.4,2.6-1.1
	c-0.4-0.6-0.6-1.4-0.5-2.1c0-0.9,0.1-1.9,0.3-2.8c0.2-0.9,0.4-1.8,0.6-2.8s0.4-1.8,0.6-2.7c0.2-0.8,0.3-1.6,0.3-2.5
	c0.1-1-0.2-1.9-0.9-2.7c-0.7-0.6-1.7-0.9-2.6-0.9c-1.4,0-2.8,0.4-4,1.2c-1.5,1-2.6,2.3-3.5,3.9l-0.3-0.1c0.2-0.5,0.4-1,0.5-1.5
	c0.1-0.5,0.2-1,0.2-1.6c0-0.5-0.1-1-0.5-1.4c-0.4-0.4-1-0.5-1.5-0.5c-0.8,0-1.6,0.1-2.3,0.4c-0.8,0.3-1.5,0.6-2.2,1.1l1.4,1.9
	c-0.2,1-0.5,2-0.7,3.2s-0.5,2.2-0.7,3.3c-0.2,1.1-0.4,2-0.5,2.9c-0.1,0.6-0.2,1.2-0.2,1.9c-0.1,0.8,0.2,1.5,0.6,2.2
	c0.6,0.5,1.3,0.8,2.1,0.7C187.1,35.9,188,35.5,188.7,34.8L188.7,34.8L188.7,34.8z"/>
<radialGradient id="SVGID_1_" cx="-49.7059" cy="174.9684" r="4.904255e-02" gradientTransform="matrix(1158.2307 0 0 -1151.4802 57615.6602 201477.1563)" gradientUnits="userSpaceOnUse">
	<stop  offset="0" style="stop-color:#FCC275"/>
	<stop  offset="1" style="stop-color:#FFA302"/>
</radialGradient>
<path class="st1" d="M33.9,0H15.4C6.9,0,0,6.9,0,15.3v18.4C0,42.2,6.9,49,15.4,49h18.5c8.5,0,15.4-6.9,15.4-15.3V15.3
	C49.3,6.9,42.4,0,33.9,0z"/>
<path id="S" class="st2" d="M27.2,35c1.1-0.3,2.2-0.7,3.2-1.3c0.9-0.5,1.6-1.2,2.2-2.1c0.5-0.8,0.8-1.8,0.8-2.8
	c0-0.9-0.2-1.7-0.6-2.5c-0.4-0.7-1-1.3-1.6-1.8c-0.7-0.5-1.4-0.9-2.2-1.2c-0.8-0.3-1.6-0.6-2.4-0.9s-1.5-0.5-2.2-0.8
	c-0.6-0.2-1.1-0.5-1.6-0.9c-0.4-0.3-0.6-0.8-0.6-1.3c0-0.9,0.6-1.7,1.4-2.1c1.1-0.6,2.4-1,3.7-1.1c0.3,1,0.9,1.8,1.7,2.4
	c0.7,0.5,1.6,0.8,2.5,0.8c0.9,0,1.7-0.2,2.4-0.8c0.7-0.5,1-1.4,1-2.3c0-0.7-0.3-1.4-0.9-1.8c-0.7-0.6-1.6-1-2.5-1.2
	c-1.2-0.3-2.5-0.5-3.8-0.4c-1.5,0-2.9,0.1-4.3,0.5c-1.2,0.3-2.4,0.7-3.5,1.4c-0.9,0.5-1.8,1.3-2.4,2.2c-0.6,0.9-0.9,2-0.8,3.1
	c0,0.9,0.2,1.8,0.6,2.6c0.4,0.7,1,1.3,1.6,1.8c0.7,0.5,1.4,0.9,2.2,1.3c0.8,0.4,1.6,0.7,2.4,0.9s1.5,0.5,2.2,0.8
	c0.6,0.2,1.1,0.6,1.6,1c0.4,0.3,0.6,0.8,0.6,1.3c0,0.9-0.5,1.7-1.4,2.1c-1.1,0.5-2.2,0.7-3.3,0.7c-1.3,0-2.7-0.3-3.8-1
	c-1.1-0.7-2-1.6-2.7-2.7c-0.4,0.3-0.8,0.8-1,1.3c-0.2,0.5-0.4,1-0.4,1.5c0,0.8,0.3,1.6,0.9,2.1c0.8,0.7,1.7,1.2,2.7,1.4
	c1.5,0.4,3,0.5,4.5,0.5C24.7,35.4,26,35.3,27.2,35z"/>
</svg>
